<svg width="51" height="50" viewBox="0 0 51 50" fill="none" xmlns="http://www.w3.org/2000/svg">
<mask id="mask0_0_69" style="mask-type:alpha" maskUnits="userSpaceOnUse" x="0" y="0" width="51" height="50">
<path d="M50.5479 25.0806C50.5485 28.3529 49.9045 31.5932 48.6528 34.6165C47.4011 37.6399 45.5662 40.387 43.2528 42.701C40.9395 45.0151 38.193 46.8507 35.1703 48.1031C32.1476 49.3554 28.9078 50 25.636 50C19.0278 50 12.6903 47.3746 8.01765 42.7013C3.34498 38.028 0.71991 31.6896 0.71991 25.0806C0.71991 18.4716 3.34498 12.1332 8.01765 7.45991C12.6903 2.78662 19.0278 0.161194 25.636 0.161194C28.9078 0.161194 32.1476 0.805782 35.1703 2.05815C38.193 3.31052 40.9395 5.14613 43.2528 7.46017C45.5662 9.7742 47.4011 12.5213 48.6528 15.5447C49.9045 18.568 50.5485 21.8083 50.5479 25.0806Z" fill="#F1F3F6"/>
</mask>
<g mask="url(#mask0_0_69)">
<path d="M45.9052 53.24H6.37628C6.44822 52.5401 6.80463 50.1068 8.58341 46.9966C10.6957 43.2976 20.1128 43.8242 20.43 43.2976C20.5673 43.0687 20.6458 42.1366 20.6916 41.1587C20.7472 39.8897 20.7472 38.5422 20.7472 38.5422L26.1424 40.1317L31.5376 38.5422C31.5376 38.5422 31.5376 39.8799 31.5899 41.1587C31.6389 42.1398 31.7141 43.085 31.8547 43.3172C32.1817 43.8438 41.5858 43.3172 43.7013 47.0162C45.4768 50.1068 45.8365 52.5401 45.9052 53.24Z" fill="#E1A387"/>
<path d="M45.9052 53.2397H6.37628C6.44822 52.5398 6.80463 50.1065 8.58341 46.9962C10.3622 43.886 17.3792 43.7584 19.7008 43.4837C20.1226 43.4314 20.3875 43.379 20.4365 43.2973C20.4365 43.2973 26.0443 50.5971 31.8613 43.2973C31.9136 43.3888 32.2471 43.4477 32.7703 43.5066C35.2423 43.7682 41.9618 43.9448 43.7079 46.9962C45.4768 50.1065 45.8365 52.5398 45.9052 53.2397Z" fill="#860018"/>
<path d="M32.7633 43.5066C28.1855 49.8743 22.7249 46.3847 19.684 43.4837C20.1058 43.4314 20.3706 43.379 20.4197 43.2973C20.4197 43.2973 26.0274 50.5971 31.8444 43.2973C31.9066 43.3888 32.2401 43.4477 32.7633 43.5066Z" fill="#6B1524"/>
<path d="M16.9087 27.5206C16.9087 27.5206 14.4073 23.2951 13.374 26.9156C12.3407 30.5361 14.8389 32.2629 16.4771 31.9195C18.1152 31.5761 16.9087 27.5206 16.9087 27.5206Z" fill="#E1A387"/>
<path d="M16.6184 28.2108C16.6184 28.2108 14.8952 25.5355 14.2902 26.6148C13.9221 27.3778 13.7737 28.2283 13.8619 29.0709C13.8619 29.0709 14.2052 27.5632 15.3268 28.4168C15.3268 28.4168 14.2477 30.8305 16.4483 30.1404C16.4352 30.1502 17.341 29.4176 16.6184 28.2108Z" fill="#CE8D75"/>
<path d="M34.8645 27.5206C34.8645 27.5206 37.3659 23.2951 38.3992 26.9156C39.4324 30.5361 36.9343 32.2629 35.2961 31.9195C33.6579 31.5761 34.8645 27.5206 34.8645 27.5206Z" fill="#E1A387"/>
<path d="M34.8993 28.4916C34.8993 28.4916 36.6225 25.8163 37.2274 26.8956C37.5957 27.6586 37.7451 28.5088 37.659 29.3517C37.659 29.3517 37.3124 27.844 36.1908 28.6976C36.1908 28.6976 37.2699 31.1113 35.0693 30.4212C35.0693 30.431 34.1668 29.6984 34.8993 28.4916Z" fill="#CE8D75"/>
<path d="M34.9285 34.4183C34.7389 37.5253 31.1977 39.8245 28.8826 40.8515C27.5563 41.4701 26.0677 41.651 24.6319 41.3682C15.8818 38.7943 16.1303 32.8648 16.5227 31.2001C16.9151 29.5354 16.3788 26.2943 17.4055 22.4482C17.5377 21.9505 17.7345 21.4722 17.9908 21.0255C19.5571 18.2913 22.8956 17.4116 22.8956 17.4116C28.6799 13.6734 32.7279 17.3462 34.062 20.3551C34.1507 20.5515 34.2293 20.7524 34.2975 20.9568C35.3078 24.054 35.1247 30.932 34.9285 34.4183Z" fill="#F2C2AC"/>
<path fill-rule="evenodd" clip-rule="evenodd" d="M31.9794 14.8218C32.0023 14.8162 32.0253 14.8107 32.0483 14.8053C32.2474 14.7564 32.4494 14.7204 32.6532 14.6974C32.8238 14.6991 32.9941 14.7112 33.1633 14.7334C33.3431 14.7612 33.5202 14.8039 33.693 14.8609C36.2107 15.708 36.4102 19.6523 36.0702 23.0863C36.044 23.3283 36.0178 23.5703 35.9884 23.8058C35.8221 25.1253 35.5874 26.4353 35.2854 27.7305C35.2551 27.8659 35.226 27.9851 35.2013 28.0866C35.186 28.1492 35.1724 28.2051 35.1612 28.2538C35.1252 28.4042 35.1023 28.486 35.1023 28.486L35.0401 28.0739V28.0183C34.9061 26.9881 34.3862 25.657 33.7519 24.303C33.011 22.8049 32.2055 21.3403 31.3378 19.913C29.8392 20.3999 27.5807 21.0627 24.6964 21.7023C24.134 21.8266 23.552 21.9508 22.9405 22.0718C22.11 22.2376 21.238 22.3989 20.3246 22.5559C16.6984 23.1675 15.0471 22.1046 14.3245 20.7375C14.2666 20.6312 14.2142 20.5221 14.1676 20.4104C13.4907 18.7752 13.9779 16.8553 13.9779 16.8553C14.1676 17.2576 14.5861 17.2969 15.1877 17.0843C15.2991 17.0456 15.4083 17.0008 15.5147 16.9502C16.3231 16.5941 17.3878 15.9061 18.6191 15.1105C20.69 13.7722 23.2321 12.1296 25.8179 11.2497C26.3301 11.0694 26.8709 10.9841 27.4136 10.9978C27.6707 11.0069 27.926 11.0431 28.1755 11.1058C28.9862 11.327 29.7204 11.7671 30.2976 12.378C30.3859 12.4696 30.4742 12.5611 30.5592 12.656C31.0833 13.2624 31.5303 13.9314 31.89 14.6477C31.9203 14.7055 31.9501 14.7636 31.9794 14.8218Z" fill="#A16929"/>
<path d="M16.9021 17.1524C16.7942 17.4794 16.4443 23.9093 16.7778 26.8266L19.8612 18.7386L16.9021 17.1524Z" fill="#A16929"/>
<path d="M30.5669 12.6433C29.7723 13.5427 28.9646 14.4257 28.0818 15.2597C25.6392 17.5818 22.8108 19.5964 19.5149 20.4926C17.8799 20.9308 15.9704 21.2055 14.3256 20.7379C14.2678 20.6316 14.2154 20.5224 14.1687 20.4108C14.3093 20.4533 14.4499 20.486 14.6036 20.5187C17.5464 21.1205 20.8163 20.051 23.3504 18.5564C26.0072 16.9158 28.3601 14.8279 30.3053 12.3849C30.3936 12.4569 30.4818 12.5484 30.5669 12.6433Z" fill="#C98643"/>
<path d="M28.1836 11.0928C26.6926 13.549 24.7339 15.7141 22.4647 17.1171C20.6205 18.2553 18.5409 18.6805 16.4646 17.9838C15.9524 17.8249 15.5052 17.5049 15.1893 17.0714C15.3007 17.0327 15.4098 16.9879 15.5163 16.9373C15.7095 17.1505 15.9443 17.3219 16.2062 17.4409C17.3036 17.9318 18.5323 18.0468 19.7017 17.768C21.6897 17.2872 23.4195 15.9561 24.8059 14.4974C25.8064 13.4305 26.6839 12.2545 27.4217 10.9914C27.6785 10.9984 27.9339 11.0324 28.1836 11.0928Z" fill="#C98643"/>
<path d="M32.1945 15.2363C30.7575 16.9181 29.1561 18.4519 27.414 19.815C26.5504 20.5016 25.6427 21.1309 24.6968 21.6989C24.1344 21.8232 23.5524 21.9474 22.9409 22.0684C24.7481 21.2476 26.4162 20.1496 27.8849 18.8143C29.3367 17.5345 30.6788 16.1352 31.8969 14.6312C32.0016 14.834 32.0997 15.0368 32.1945 15.2363Z" fill="#C98643"/>
<path d="M20.3806 24.5542C19.3996 25.156 18.8143 26.631 19.3996 27.5827C19.4258 27.6318 19.5271 27.6122 19.5206 27.5566C19.4742 27.1162 19.5277 26.6711 19.6772 26.2544C19.8267 25.8376 20.0682 25.4599 20.3838 25.1495C20.8055 24.765 21.3534 24.5486 21.9239 24.5411C22.5779 24.4986 22.8656 25.0841 23.379 25.2836C23.4836 25.3261 23.6177 25.2574 23.5817 25.1495C23.1762 23.9263 21.3844 23.9459 20.3806 24.5542Z" fill="#390A0A"/>
<path d="M23.8429 27.3018C23.8429 28.888 22.862 30.1766 21.6652 30.1766C20.4685 30.1766 19.4908 28.888 19.4908 27.3018C19.4908 25.7156 20.4717 24.427 21.6652 24.427C22.8587 24.427 23.8429 25.7156 23.8429 27.3018Z" fill="white"/>
<path d="M23.3829 27.3867C23.3829 28.5674 22.6406 29.5256 21.7251 29.5256C20.8095 29.5256 20.0673 28.5674 20.0673 27.3867C20.0673 26.2061 20.8095 25.2445 21.7251 25.2445C22.6406 25.2445 23.3829 26.2126 23.3829 27.3867Z" fill="#3D79CA"/>
<path d="M23.1178 27.4193C23.1178 28.4004 22.5096 29.2246 21.7608 29.2246C21.012 29.2246 20.4039 28.4168 20.4039 27.4193C20.4039 26.4218 21.012 25.6139 21.7608 25.6139C22.5096 25.6139 23.1178 26.425 23.1178 27.4193Z" fill="#390A0A"/>
<path d="M23.3821 25.8659C23.3821 26.0621 22.9962 26.2191 22.5221 26.2191C22.048 26.2191 21.6654 26.0621 21.6654 25.8659C21.6654 25.6696 22.0513 25.5094 22.5221 25.5094C22.993 25.5094 23.3821 25.6664 23.3821 25.8659Z" fill="white"/>
<path d="M31.4323 24.5542C32.4132 25.156 32.9985 26.631 32.4132 27.5827C32.3871 27.6318 32.2857 27.6122 32.2922 27.5566C32.3386 27.1162 32.2851 26.6711 32.1356 26.2544C31.9862 25.8376 31.7446 25.4599 31.429 25.1495C31.0085 24.7653 30.4617 24.5488 29.8922 24.5411C29.2382 24.4986 28.9472 25.0841 28.4339 25.2836C28.3292 25.3261 28.1952 25.2574 28.2311 25.1495C28.6366 23.9263 30.4284 23.9459 31.4323 24.5542Z" fill="#390A0A"/>
<path d="M32.1658 27.3018C32.1658 28.888 31.1849 30.1766 29.9914 30.1766C28.7979 30.1766 27.8169 28.888 27.8169 27.3018C27.8169 25.7156 28.7979 24.427 29.9914 24.427C31.1849 24.427 32.1658 25.7156 32.1658 27.3018Z" fill="white"/>
<path d="M31.7041 27.3867C31.7041 28.5674 30.9618 29.5256 30.0463 29.5256C29.1307 29.5256 28.3885 28.5772 28.3885 27.3867C28.3885 26.1962 29.1307 25.2445 30.043 25.2445C30.9553 25.2445 31.7041 26.2126 31.7041 27.3867Z" fill="#3D79CA"/>
<path d="M31.4433 27.4193C31.4433 28.4004 30.835 29.2246 30.083 29.2246C29.3309 29.2246 28.726 28.4168 28.726 27.4193C28.726 26.4218 29.3342 25.6139 30.083 25.6139C30.8318 25.6139 31.4433 26.425 31.4433 27.4193Z" fill="#390A0A"/>
<path d="M31.7039 25.8659C31.7039 26.0621 31.3214 26.2191 30.8473 26.2191C30.3731 26.2191 29.9906 26.0621 29.9906 25.8659C29.9906 25.6696 30.3731 25.5094 30.8473 25.5094C31.3214 25.5094 31.7039 25.6664 31.7039 25.8659Z" fill="white"/>
<path d="M25.8459 25.9146C25.8459 25.9146 25.1919 25.2605 25.0742 27.5891C24.9565 29.9178 25.0742 32.351 25.0742 32.351C25.0742 32.351 23.5309 31.4484 24.0442 32.737C24.3222 33.4303 24.9761 33.7868 25.6791 33.97C25.9345 34.0438 26.2057 34.043 26.4606 33.9677C26.7156 33.8923 26.9436 33.7456 27.1179 33.5448C27.301 33.3649 28.2558 32.3968 27.9549 32.0959C27.8111 31.9488 26.974 32.2954 26.7615 32.351C26.7549 32.351 27.0034 25.4012 25.8459 25.9146Z" fill="#E1A387"/>
<path d="M29.6964 35.3442C29.6964 35.3442 26.6653 40.5411 22.4799 35.5405C22.4799 35.5405 24.9192 34.7163 25.8119 35.4489L26.1389 35.8184C26.1389 35.8184 27.0806 34.6574 29.6964 35.3442Z" fill="#CE8D75"/>
<path d="M29.6964 35.344C29.6964 35.344 26.6653 40.5409 22.4799 35.5403C22.5028 35.5403 26.5934 37.4175 29.6964 35.344Z" fill="#E1A387"/>
<path d="M24.2496 23.3691C24.2496 23.9185 22.8482 23.6088 21.1354 23.6088C19.4225 23.6088 18.0211 23.9185 18.0211 23.3691C18.0211 22.8197 19.4194 21.6191 21.1354 21.6191C22.8513 21.6191 24.2496 22.8197 24.2496 23.3691Z" fill="#343434"/>
<path d="M33.2459 23.3691C33.2459 23.9185 31.8476 23.6088 30.1316 23.6088C28.4157 23.6088 27.0174 23.9185 27.0174 23.3691C27.0174 22.8197 28.4157 21.6191 30.1316 21.6191C31.8476 21.6191 33.2459 22.8197 33.2459 23.3691Z" fill="#343434"/>
</g>
</svg>
